<?xml version="1.0" encoding="UTF-8"?>
<!-- Original simple vector illustration of a stylized sinking ship.
     License: MIT (bundled with project). -->
<svg width="240" height="180" viewBox="0 0 240 180" fill="none" xmlns="http://www.w3.org/2000/svg" role="img" aria-labelledby="title desc">
  <title id="title">Sinking Ship Logo</title>
  <desc id="desc">A stylized minimalist ship tilted as it sinks beneath layered waves.</desc>
  <defs>
    <linearGradient id="hullGrad" x1="20" y1="120" x2="200" y2="40" gradientUnits="userSpaceOnUse">
      <stop offset="0%" stop-color="#0EA5E9"/>
      <stop offset="50%" stop-color="#6366F1"/>
      <stop offset="100%" stop-color="#EC4899"/>
    </linearGradient>
    <linearGradient id="waveGrad" x1="0" y1="140" x2="0" y2="180" gradientUnits="userSpaceOnUse">
      <stop offset="0%" stop-color="#0f172a" stop-opacity="0.2"/>
      <stop offset="100%" stop-color="#0f172a" stop-opacity="0.6"/>
    </linearGradient>
    <filter id="glow" x="-20" y="-20" width="280" height="220" color-interpolation-filters="sRGB">
      <feGaussianBlur in="SourceGraphic" stdDeviation="6" result="blur"/>
      <feColorMatrix in="blur" type="matrix" values="0 0 0 0 0.5  0 0 0 0 0.7  0 0 0 0 0.95  0 0 0 0.6 0"/>
    </filter>
    <clipPath id="clipWaves">
      <rect x="0" y="120" width="240" height="60" rx="4"/>
    </clipPath>
  </defs>
  <!-- Background subtle circle -->
  <circle cx="170" cy="40" r="34" fill="#0EA5E9" fill-opacity="0.08"/>
  <circle cx="70" cy="30" r="26" fill="#EC4899" fill-opacity="0.07"/>

  <!-- Waves (layered) -->
  <g clip-path="url(#clipWaves)">
    <path d="M0 150 Q30 140 60 150 T120 150 T180 150 T240 150 V180 H0 Z" fill="url(#waveGrad)"/>
    <path d="M0 160 Q40 148 80 160 T160 160 T240 160 V180 H0 Z" fill="#0EA5E915"/>
    <path d="M0 170 Q50 158 100 170 T200 170 T240 170 V180 H0 Z" fill="#6366F115"/>
  </g>

  <!-- Ship hull -->
  <g transform="translate(40,40) rotate(-18 80 40)">
    <path d="M10 70 L150 50 L160 70 L140 90 L30 100 Q15 95 10 70 Z" fill="url(#hullGrad)" stroke="#1e293b" stroke-width="2" stroke-linejoin="round"/>
    <!-- Deck structure -->
    <rect x="70" y="32" width="46" height="20" rx="2" fill="#ffffff10" stroke="#334155" stroke-width="1.5"/>
    <rect x="60" y="38" width="10" height="12" rx="1" fill="#38bdf8" fill-opacity="0.7"/>
    <rect x="74" y="38" width="10" height="12" rx="1" fill="#38bdf8" fill-opacity="0.7"/>
    <rect x="88" y="38" width="10" height="12" rx="1" fill="#38bdf8" fill-opacity="0.7"/>
    <rect x="102" y="38" width="10" height="12" rx="1" fill="#38bdf8" fill-opacity="0.7"/>
    <!-- Mast -->
    <rect x="95" y="10" width="4" height="30" rx="2" fill="#64748b"/>
    <!-- Flag -->
    <path d="M99 12 L124 18 L99 24 Z" fill="#EC4899" stroke="#EC4899" stroke-width="1"/>
    <!-- Highlight / glow behind ship -->
    <path d="M10 70 L150 50 L160 70 L140 90 L30 100 Q15 95 10 70 Z" fill="#ffffff08" filter="url(#glow)"/>
  </g>

  <!-- Splash / droplets -->
  <circle cx="180" cy="118" r="4" fill="#38bdf8" fill-opacity="0.5"/>
  <circle cx="188" cy="124" r="3" fill="#38bdf8" fill-opacity="0.35"/>
  <circle cx="172" cy="122" r="2.5" fill="#38bdf8" fill-opacity="0.4"/>

  <!-- Foreground subtle overlay -->
  <rect x="0" y="120" width="240" height="60" fill="#0f172a" fill-opacity="0.15"/>
</svg>

